<svg xmlns="http://www.w3.org/2000/svg" width="24" height="24" fill="#ffffff" viewBox="0 0 24 24">
  <path d="M12 2C6.477 2 2 6.484 2 12.017c0 2.108.583 3.997 1.598 5.64L2 22l4.486-1.571A9.948 9.948 0 0 0 12 22c5.523 0 10-4.484 10-9.983C22 6.484 17.523 2 12 2zm5.092 14.69c-.21.59-1.228 1.142-1.72 1.216-.46.068-1.04.097-1.676-.105-.387-.122-.885-.286-1.51-.558-2.652-1.15-4.376-3.835-4.507-4.016-.13-.181-1.08-1.437-1.08-2.741 0-1.304.684-1.945.925-2.209.24-.265.523-.331.698-.331.174 0 .349.002.502.009.162.007.377-.061.59.45.21.51.713 1.757.776 1.883.064.126.106.274.02.455-.084.181-.126.274-.245.424-.13.155-.274.347-.391.466-.13.13-.265.27-.114.53.15.259.668 1.102 1.437 1.786.987.88 1.82 1.155 2.079 1.285.26.13.409.11.558-.065.15-.174.646-.754.819-1.013.174-.259.348-.216.59-.13.24.087 1.52.717 1.78.847.259.13.433.194.497.303.063.11.063.63-.146 1.22z"/>
</svg>
